<svg aria-hidden="true" fill="currentColor" role="img" width="24" height="24" viewBox="0 0 24 24" xmlns="http://www.w3.org/2000/svg">
<path fill-rule="evenodd" clip-rule="evenodd" d="M19.5592 18.9177V19.7648L12.5004 24.0001L5.44157 19.7648V18.9177L12.5004 23.153L19.5592 18.9177ZM19.5592 17.2239V18.0709L12.5004 22.3062L5.44157 18.0709V17.2239L12.5004 21.4592L19.5592 17.2239ZM19.5592 15.5298V16.3768L12.5004 20.6121L5.44157 16.3768V15.5298L12.5004 19.7651L19.5592 15.5298ZM18.8552 10.9583V11.8053L16.0316 13.4994V16.8877L15.3244 17.3112V13.0759L18.8552 10.9583ZM6.00602 10.9583L9.53684 13.0759V17.3112L8.82955 16.8877L8.83096 13.4994L6.00602 11.8053V10.9583ZM18.8545 12.6523V13.4994L17.4428 14.3465V16.0406L16.7355 16.4641V13.9229L18.8545 12.6523ZM6.00602 12.6523L8.12508 13.9229V16.4641L7.41778 16.0406L7.4192 14.3465L6.00602 13.4994V12.6523ZM18.8558 14.3464V15.1935L18.1486 15.617V14.7699L18.8558 14.3464ZM6.00602 14.3464L6.71331 14.77V15.617L6.00743 15.1935L6.00602 14.3464ZM11.7935 2.4001L12.4994 2.82362L5.44058 7.05892V15.5295L4.73469 15.106L4.7354 6.63539L11.7935 2.4001ZM13.2051 2.40015L20.2639 6.63544V15.106L19.558 15.5296V7.05897L12.4992 2.82368L13.2051 2.40015ZM14.6172 1.55308L21.676 5.78837V14.259L20.9701 14.6825V6.2119L13.9113 1.9766L14.6172 1.55308ZM16.0293 0.706055L23.0881 4.94135V13.4119L22.3822 13.8355V5.36488L15.3234 1.12958L16.0293 0.706055ZM8.97012 0.706055L9.676 1.12958L2.61718 5.36488V13.8355L1.91129 13.4119L1.912 4.94135L8.97012 0.706055ZM15.3227 5.22377L16.0286 5.6473L12.4992 7.76495L8.9698 5.6473L9.67568 5.22377L12.4992 6.91789L15.3227 5.22377ZM4.02928 14.6824L3.3234 14.2589V5.78827L10.3822 1.55298L11.0881 1.97651L4.02928 6.2118V14.6824ZM13.9104 4.37671L14.6163 4.80024L12.4987 6.07083L10.381 4.80024L11.0869 4.37671L12.4987 5.22377L13.9104 4.37671ZM12.4991 3.52973L13.205 3.95326L12.4991 4.37679L11.7932 3.95326L12.4991 3.52973Z" fill="white"></path>
</svg>